<svg width="24" height="24" viewBox="0 0 24 24" fill="none" xmlns="http://www.w3.org/2000/svg">
<path opacity="0.4" d="M19.09 12.59C18.93 12.59 18.77 12.54 18.63 12.43C14.6 9.31999 9.38999 9.31999 5.35999 12.43C5.02999 12.68 4.55999 12.62 4.30999 12.3C4.05999 11.97 4.12 11.5 4.44 11.25C9.03 7.69999 14.96 7.69999 19.54 11.25C19.87 11.5 19.93 11.97 19.67 12.3C19.54 12.49 19.32 12.59 19.09 12.59Z" fill="#3F3F46"/>
<path d="M22 9.11001C21.84 9.11001 21.68 9.06 21.54 8.95C15.74 4.47 8.25004 4.47 2.46004 8.95C2.13004 9.2 1.66003 9.14001 1.41003 8.82001C1.16003 8.49001 1.22002 8.02001 1.54002 7.77001C7.89002 2.86001 16.1 2.86001 22.46 7.77001C22.79 8.02001 22.85 8.49001 22.59 8.82001C22.45 9.01001 22.22 9.11001 22 9.11001Z" fill="#3F3F46"/>
<path d="M17.21 16.24C17.05 16.24 16.89 16.19 16.75 16.08C13.87 13.85 10.14 13.85 7.25001 16.08C6.92001 16.33 6.45001 16.27 6.20001 15.95C5.95001 15.62 6.01001 15.15 6.33001 14.9C9.77001 12.24 14.22 12.24 17.66 14.9C17.99 15.15 18.05 15.62 17.79 15.95C17.65 16.14 17.43 16.24 17.21 16.24Z" fill="#3F3F46"/>
<path opacity="0.4" d="M14.6 19.9C14.44 19.9 14.28 19.85 14.14 19.74C12.84 18.73 11.15 18.73 9.84999 19.74C9.51999 19.99 9.04999 19.93 8.79999 19.61C8.54999 19.28 8.60998 18.81 8.92998 18.56C10.79 17.12 13.19 17.12 15.05 18.56C15.38 18.81 15.44 19.28 15.18 19.61C15.05 19.79 14.83 19.9 14.6 19.9Z" fill="#3F3F46"/>
</svg>
