<svg width="24" height="24" viewBox="0 0 24 24" fill="none" xmlns="http://www.w3.org/2000/svg">
<path opacity="0.4" d="M19.0899 12.5899C18.9299 12.5899 18.7699 12.5399 18.6299 12.4299C14.5999 9.3199 9.38993 9.3199 5.35993 12.4299C5.02993 12.6799 4.55993 12.6199 4.30993 12.2999C4.05993 11.9699 4.11994 11.4999 4.43994 11.2499C9.02994 7.6999 14.9599 7.6999 19.5399 11.2499C19.8699 11.4999 19.9299 11.9699 19.6699 12.2999C19.5399 12.4899 19.3199 12.5899 19.0899 12.5899Z" fill="#F44336"/>
<path d="M22 9.1099C21.84 9.1099 21.68 9.0599 21.54 8.94989C15.74 4.46989 8.25004 4.46989 2.46004 8.94989C2.13004 9.19989 1.66003 9.13991 1.41003 8.81991C1.16003 8.48991 1.22002 8.0199 1.54002 7.7699C7.89002 2.8599 16.1 2.8599 22.46 7.7699C22.79 8.0199 22.85 8.48991 22.59 8.81991C22.45 9.00991 22.22 9.1099 22 9.1099Z" fill="#F44336"/>
<path d="M17.21 16.2398C17.05 16.2398 16.8899 16.1898 16.7499 16.0798C13.8699 13.8498 10.1399 13.8498 7.24995 16.0798C6.91995 16.3298 6.44995 16.2698 6.19995 15.9498C5.94995 15.6198 6.00995 15.1498 6.32995 14.8998C9.76995 12.2398 14.22 12.2398 17.66 14.8998C17.99 15.1498 18.0499 15.6198 17.7899 15.9498C17.6499 16.1398 17.43 16.2398 17.21 16.2398Z" fill="#F44336"/>
<path opacity="0.4" d="M14.6001 19.9C14.4401 19.9 14.28 19.85 14.14 19.74C12.84 18.73 11.1501 18.73 9.85005 19.74C9.52005 19.99 9.05005 19.93 8.80005 19.61C8.55005 19.28 8.61004 18.81 8.93004 18.56C10.79 17.12 13.19 17.12 15.05 18.56C15.38 18.81 15.44 19.28 15.18 19.61C15.05 19.79 14.8301 19.9 14.6001 19.9Z" fill="#F44336"/>
</svg>
