<svg width="16" height="16" viewBox="0 0 16 16" fill="none" xmlns="http://www.w3.org/2000/svg">
<path d="M7.99999 15.1667C4.04666 15.1667 0.833328 11.9533 0.833328 7.99999C0.833328 4.04666 4.04666 0.833328 7.99999 0.833328C11.9533 0.833328 15.1667 4.04666 15.1667 7.99999C15.1667 11.9533 11.9533 15.1667 7.99999 15.1667ZM7.99999 1.83333C4.59999 1.83333 1.83333 4.59999 1.83333 7.99999C1.83333 11.4 4.59999 14.1667 7.99999 14.1667C11.4 14.1667 14.1667 11.4 14.1667 7.99999C14.1667 4.59999 11.4 1.83333 7.99999 1.83333Z" fill="#BDBDBD"/>
<path d="M9.46667 8.49999H5.85333C5.58 8.49999 5.35333 8.27333 5.35333 7.99999V5.11333C5.35333 4.83999 5.58 4.61333 5.85333 4.61333H9.46667C10.5 4.61333 11.4133 5.51999 11.4133 6.55999C11.4133 7.62666 10.54 8.49999 9.46667 8.49999ZM6.35333 7.49999H9.46667C9.98667 7.49999 10.4133 7.07333 10.4133 6.55333C10.4133 6.11333 10 5.60666 9.46667 5.60666H6.35333V7.49999Z" fill="#BDBDBD"/>
<path d="M9.98 11.3867H5.85333C5.58 11.3867 5.35333 11.16 5.35333 10.8867V8C5.35333 7.72667 5.58 7.5 5.85333 7.5H9.98C11.1667 7.5 12.1333 8.37333 12.1333 9.44667C12.1333 10.52 11.1667 11.3867 9.98 11.3867ZM6.35333 10.3867H9.98C10.6133 10.3867 11.1333 9.96 11.1333 9.44C11.1333 8.92 10.62 8.49333 9.98 8.49333H6.35333V10.3867Z" fill="#BDBDBD"/>
<path d="M8.38 12.8333C8.10667 12.8333 7.88 12.6067 7.88 12.3333V10.8867C7.88 10.6133 8.10667 10.3867 8.38 10.3867C8.65334 10.3867 8.88 10.6133 8.88 10.8867V12.3333C8.88 12.6067 8.66 12.8333 8.38 12.8333Z" fill="#BDBDBD"/>
<path d="M6.58 12.8333C6.30667 12.8333 6.08 12.6067 6.08 12.3333V10.8867C6.08 10.6133 6.30667 10.3867 6.58 10.3867C6.85334 10.3867 7.08 10.6133 7.08 10.8867V12.3333C7.08 12.6067 6.85334 12.8333 6.58 12.8333Z" fill="#BDBDBD"/>
<path d="M8.38 5.61334C8.10667 5.61334 7.88 5.38667 7.88 5.11334V3.66667C7.88 3.39334 8.10667 3.16667 8.38 3.16667C8.65334 3.16667 8.88 3.39334 8.88 3.66667V5.11334C8.88 5.38667 8.66 5.61334 8.38 5.61334Z" fill="#BDBDBD"/>
<path d="M6.58 5.61334C6.30667 5.61334 6.08 5.38667 6.08 5.11334V3.66667C6.08 3.39334 6.30667 3.16667 6.58 3.16667C6.85334 3.16667 7.08 3.39334 7.08 3.66667V5.11334C7.08 5.38667 6.85334 5.61334 6.58 5.61334Z" fill="#BDBDBD"/>
<path d="M7.22666 5.61333H4.7C4.42666 5.61333 4.2 5.38666 4.2 5.11333C4.2 4.83999 4.42666 4.61333 4.7 4.61333H7.22666C7.5 4.61333 7.72666 4.83999 7.72666 5.11333C7.72666 5.38666 7.50666 5.61333 7.22666 5.61333Z" fill="#BDBDBD"/>
<path d="M7.22666 11.3867H4.7C4.42666 11.3867 4.2 11.16 4.2 10.8867C4.2 10.6133 4.42666 10.3867 4.7 10.3867H7.22666C7.5 10.3867 7.72666 10.6133 7.72666 10.8867C7.72666 11.16 7.50666 11.3867 7.22666 11.3867Z" fill="#BDBDBD"/>
</svg>
