<svg width="18" height="18" viewBox="0 0 18 18" fill="none" xmlns="http://www.w3.org/2000/svg">
<path opacity="0.8" d="M9.67499 1.89001L9.65249 1.94251L7.47749 6.99001H5.33999C4.82999 6.99001 4.34999 7.08751 3.89999 7.28251L5.21249 4.14751L5.24249 4.08001L5.28749 3.96001C5.30999 3.90751 5.32499 3.86251 5.34749 3.82501C6.32999 1.55251 7.43999 1.03501 9.67499 1.89001Z" fill="#F44336"/>
<path d="M13.7175 7.14002C13.38 7.04251 13.0275 6.99001 12.66 6.99001H7.47751L9.65251 1.94251L9.67501 1.89001C9.78001 1.92751 9.89251 1.98001 10.005 2.01751L11.6625 2.71501C12.585 3.09751 13.23 3.49501 13.6275 3.97501C13.695 4.06501 13.755 4.14751 13.815 4.24501C13.8825 4.35001 13.935 4.45501 13.965 4.56751C13.995 4.63501 14.0175 4.69501 14.0325 4.76251C14.2275 5.40001 14.1075 6.17251 13.7175 7.14002Z" fill="#F44336"/>
<path opacity="0.4" d="M16.32 10.65V12.1125C16.32 12.2625 16.3125 12.4125 16.305 12.555C16.1625 15.18 14.7 16.5 11.925 16.5H6.07499C5.88749 16.5 5.71499 16.485 5.54249 16.4625C3.15749 16.305 1.88249 15.03 1.71749 12.645C1.69499 12.465 1.67999 12.2925 1.67999 12.1125V10.65C1.67999 9.14249 2.59499 7.84499 3.89999 7.28249C4.34999 7.08749 4.82999 6.98999 5.33999 6.98999H12.66C13.0275 6.98999 13.38 7.04249 13.7175 7.13999C15.2175 7.59749 16.32 8.99249 16.32 10.65Z" fill="#F44336"/>
<path opacity="0.6" d="M5.21249 4.14749L3.89999 7.28249C2.59499 7.84499 1.67999 9.14249 1.67999 10.65V8.45249C1.67999 6.32249 3.19499 4.54499 5.21249 4.14749Z" fill="#F44336"/>
<path opacity="0.6" d="M16.32 8.45251V10.65C16.32 8.9925 15.2175 7.59751 13.7175 7.14001C14.1075 6.17251 14.2275 5.4 14.0325 4.7625C14.0175 4.695 13.995 4.635 13.965 4.5675C15.3675 5.295 16.32 6.77251 16.32 8.45251Z" fill="#F44336"/>
</svg>
