<svg width="22" height="22" viewBox="0 0 22 22" fill="none" xmlns="http://www.w3.org/2000/svg">
<path d="M17.7098 9.85419H4.29893C2.56643 9.85419 1.15475 8.44253 1.15475 6.71003V4.29919C1.15475 2.56669 2.56643 1.15501 4.29893 1.15501H17.7098C19.4423 1.15501 20.8539 2.56669 20.8539 4.29919V6.71003C20.8539 8.44253 19.4423 9.85419 17.7098 9.85419ZM4.28975 2.52085C3.30892 2.52085 2.52059 3.31835 2.52059 4.29001V6.70085C2.52059 7.68168 3.31809 8.47002 4.28975 8.47002H17.7006C18.6814 8.47002 19.4698 7.67252 19.4698 6.70085V4.29001C19.4698 3.30918 18.6723 2.52085 17.7006 2.52085H4.28975Z" fill="white"/>
<path d="M17.7098 20.8542H4.29893C2.56643 20.8542 1.15475 19.4425 1.15475 17.71V15.2992C1.15475 13.5667 2.56643 12.155 4.29893 12.155H17.7098C19.4423 12.155 20.8539 13.5667 20.8539 15.2992V17.71C20.8539 19.4425 19.4423 20.8542 17.7098 20.8542ZM4.28975 13.5209C3.30892 13.5209 2.52059 14.3183 2.52059 15.29V17.7009C2.52059 18.6817 3.31809 19.47 4.28975 19.47H17.7006C18.6814 19.47 19.4698 18.6725 19.4698 17.7009V15.29C19.4698 14.3092 18.6723 13.5209 17.7006 13.5209H4.28975Z" fill="white"/>
<path d="M5.49997 7.10416C5.12414 7.10416 4.81247 6.79249 4.81247 6.41666V4.58333C4.81247 4.20749 5.12414 3.89583 5.49997 3.89583C5.8758 3.89583 6.18747 4.20749 6.18747 4.58333V6.41666C6.18747 6.79249 5.8758 7.10416 5.49997 7.10416Z" fill="white"/>
<path d="M9.16663 7.10416C8.79079 7.10416 8.47913 6.79249 8.47913 6.41666V4.58333C8.47913 4.20749 8.79079 3.89583 9.16663 3.89583C9.54246 3.89583 9.85413 4.20749 9.85413 4.58333V6.41666C9.85413 6.79249 9.54246 7.10416 9.16663 7.10416Z" fill="white"/>
<path d="M5.49997 18.1042C5.12414 18.1042 4.81247 17.7925 4.81247 17.4167V15.5833C4.81247 15.2075 5.12414 14.8958 5.49997 14.8958C5.8758 14.8958 6.18747 15.2075 6.18747 15.5833V17.4167C6.18747 17.7925 5.8758 18.1042 5.49997 18.1042Z" fill="white"/>
<path d="M9.16663 18.1042C8.79079 18.1042 8.47913 17.7925 8.47913 17.4167V15.5833C8.47913 15.2075 8.79079 14.8958 9.16663 14.8958C9.54246 14.8958 9.85413 15.2075 9.85413 15.5833V17.4167C9.85413 17.7925 9.54246 18.1042 9.16663 18.1042Z" fill="white"/>
<path d="M16.5 6.1875H12.8333C12.4575 6.1875 12.1458 5.87583 12.1458 5.5C12.1458 5.12417 12.4575 4.8125 12.8333 4.8125H16.5C16.8758 4.8125 17.1875 5.12417 17.1875 5.5C17.1875 5.87583 16.8758 6.1875 16.5 6.1875Z" fill="white"/>
<path d="M16.5 17.1875H12.8333C12.4575 17.1875 12.1458 16.8758 12.1458 16.5C12.1458 16.1242 12.4575 15.8125 12.8333 15.8125H16.5C16.8758 15.8125 17.1875 16.1242 17.1875 16.5C17.1875 16.8758 16.8758 17.1875 16.5 17.1875Z" fill="white"/>
</svg>
