<svg width="23" height="22" viewBox="0 0 23 22" fill="none" xmlns="http://www.w3.org/2000/svg">
<path d="M11.3333 13.5208C9.93997 13.5208 8.81247 12.3933 8.81247 11C8.81247 9.60667 9.93997 8.47917 11.3333 8.47917C12.7266 8.47917 13.8541 9.60667 13.8541 11C13.8541 12.3933 12.7266 13.5208 11.3333 13.5208ZM11.3333 9.85417C10.7008 9.85417 10.1875 10.3675 10.1875 11C10.1875 11.6325 10.7008 12.1458 11.3333 12.1458C11.9658 12.1458 12.4791 11.6325 12.4791 11C12.4791 10.3675 11.9658 9.85417 11.3333 9.85417Z" fill="#A1A1AA"/>
<path d="M18.6669 17.1875C18.5202 17.1875 18.3827 17.1417 18.2544 17.05C17.9519 16.8209 17.8877 16.39 18.1169 16.0875C19.226 14.6117 19.8127 12.8517 19.8127 11C19.8127 9.14836 19.226 7.38837 18.1169 5.91254C17.8877 5.61004 17.9519 5.17919 18.2544 4.95002C18.5569 4.72086 18.9877 4.78502 19.2169 5.08752C20.5094 6.80168 21.1877 8.84586 21.1877 11C21.1877 13.1542 20.5094 15.1984 19.2169 16.9125C19.0794 17.0959 18.8777 17.1875 18.6669 17.1875Z" fill="#A1A1AA"/>
<path d="M3.99996 17.1875C3.78913 17.1875 3.58745 17.0959 3.44995 16.9125C2.15745 15.1984 1.47913 13.1542 1.47913 11C1.47913 8.84586 2.15745 6.80168 3.44995 5.08752C3.67912 4.78502 4.10997 4.72086 4.41247 4.95002C4.71497 5.17919 4.77913 5.61004 4.54996 5.91254C3.4408 7.38837 2.85413 9.14836 2.85413 11C2.85413 12.8517 3.4408 14.6117 4.54996 16.0875C4.77913 16.39 4.71497 16.8209 4.41247 17.05C4.2933 17.1417 4.14663 17.1875 3.99996 17.1875Z" fill="#A1A1AA"/>
<path d="M15.7334 14.9875C15.5867 14.9875 15.4492 14.9417 15.3209 14.85C15.0184 14.6208 14.9542 14.19 15.1834 13.8875C15.8159 13.0533 16.1459 12.0542 16.1459 11C16.1459 9.94582 15.8159 8.94666 15.1834 8.1125C14.9542 7.81 15.0184 7.37915 15.3209 7.14998C15.6234 6.92081 16.0542 6.985 16.2834 7.2875C17.09 8.36917 17.5209 9.65249 17.5209 11C17.5209 12.3475 17.09 13.64 16.2834 14.7125C16.1459 14.8958 15.9442 14.9875 15.7334 14.9875Z" fill="#A1A1AA"/>
<path d="M6.93331 14.9875C6.72248 14.9875 6.5208 14.8958 6.3833 14.7125C5.57664 13.6308 5.1458 12.3475 5.1458 11C5.1458 9.65249 5.57664 8.36 6.3833 7.2875C6.61247 6.985 7.04329 6.92081 7.34579 7.14998C7.64829 7.37915 7.71245 7.81 7.48329 8.1125C6.85079 8.94666 6.5208 9.94582 6.5208 11C6.5208 12.0542 6.85079 13.0533 7.48329 13.8875C7.71245 14.19 7.64829 14.6208 7.34579 14.85C7.22663 14.9417 7.07998 14.9875 6.93331 14.9875Z" fill="#A1A1AA"/>
</svg>
