<svg width="22" height="22" viewBox="0 0 22 22" fill="none" xmlns="http://www.w3.org/2000/svg">
<path d="M2.75 15.125C2.37417 15.125 2.0625 14.8133 2.0625 14.4375V7.5625C2.0625 7.18667 2.37417 6.875 2.75 6.875C3.12583 6.875 3.4375 7.18667 3.4375 7.5625V14.4375C3.4375 14.8133 3.12583 15.125 2.75 15.125Z" fill="#A1A1AA"/>
<path d="M6.875 17.4167C6.49917 17.4167 6.1875 17.105 6.1875 16.7292V5.27083C6.1875 4.89499 6.49917 4.58333 6.875 4.58333C7.25083 4.58333 7.5625 4.89499 7.5625 5.27083V16.7292C7.5625 17.105 7.25083 17.4167 6.875 17.4167Z" fill="#A1A1AA"/>
<path d="M11 19.7083C10.6242 19.7083 10.3125 19.3967 10.3125 19.0208V2.97917C10.3125 2.60334 10.6242 2.29167 11 2.29167C11.3758 2.29167 11.6875 2.60334 11.6875 2.97917V19.0208C11.6875 19.3967 11.3758 19.7083 11 19.7083Z" fill="#A1A1AA"/>
<path d="M15.125 17.4167C14.7492 17.4167 14.4375 17.105 14.4375 16.7292V5.27083C14.4375 4.89499 14.7492 4.58333 15.125 4.58333C15.5008 4.58333 15.8125 4.89499 15.8125 5.27083V16.7292C15.8125 17.105 15.5008 17.4167 15.125 17.4167Z" fill="#A1A1AA"/>
<path d="M19.25 15.125C18.8742 15.125 18.5625 14.8133 18.5625 14.4375V7.5625C18.5625 7.18667 18.8742 6.875 19.25 6.875C19.6258 6.875 19.9375 7.18667 19.9375 7.5625V14.4375C19.9375 14.8133 19.6258 15.125 19.25 15.125Z" fill="#A1A1AA"/>
</svg>
