<svg width="23" height="22" viewBox="0 0 23 22" fill="none" xmlns="http://www.w3.org/2000/svg">
<path d="M11.6666 20.8542C6.23079 20.8542 1.81246 16.4358 1.81246 11C1.81246 5.56416 6.23079 1.14583 11.6666 1.14583C17.1025 1.14583 21.5208 5.56416 21.5208 11C21.5208 16.4358 17.1025 20.8542 11.6666 20.8542ZM11.6666 2.52083C6.99162 2.52083 3.18746 6.325 3.18746 11C3.18746 15.675 6.99162 19.4792 11.6666 19.4792C16.3416 19.4792 20.1458 15.675 20.1458 11C20.1458 6.325 16.3416 2.52083 11.6666 2.52083Z" fill="#A1A1AA"/>
<path d="M10.365 14.2817C10.1816 14.2817 10.0075 14.2083 9.87912 14.08L7.28496 11.4858C7.01912 11.22 7.01912 10.78 7.28496 10.5142C7.55079 10.2483 7.99079 10.2483 8.25662 10.5142L10.365 12.6225L15.0766 7.91083C15.3425 7.645 15.7825 7.645 16.0483 7.91083C16.3141 8.17666 16.3141 8.61666 16.0483 8.8825L10.8508 14.08C10.7225 14.2083 10.5483 14.2817 10.365 14.2817Z" fill="#A1A1AA"/>
</svg>
